<?xml version="1.0" encoding="utf-8"?>
<!-- Generator: Adobe Illustrator 24.0.0, SVG Export Plug-In . SVG Version: 6.00 Build 0)  -->
<svg version="1.1" id="Layer_1" xmlns="http://www.w3.org/2000/svg" xmlns:xlink="http://www.w3.org/1999/xlink" x="0px" y="0px"
	 viewBox="0 0 85 85" style="enable-background:new 0 0 85 85;" xml:space="preserve">
<style type="text/css">
	.st0{fill:none;stroke:#FF0000;stroke-width:2.5;stroke-linejoin:round;stroke-miterlimit:10;}
	.st1{fill:none;stroke:#FF0000;stroke-width:2.5;stroke-linecap:round;stroke-miterlimit:10;}
	.st2{fill:none;stroke:#FF0000;stroke-width:2.5;stroke-miterlimit:10;}
</style>
<g>
	<path class="st0" d="M62.4,34.6h3.4c1.7,0,3,1.3,3,3V70c0,1.6-1.3,3-3,3H19.2c-1.6,0-3-1.4-3-3V37.6c0-1.7,1.4-3,3-3h18.7"/>
	<path class="st1" d="M25,52.7"/>
	<path class="st1" d="M25,42.6"/>
	<polyline class="st0" points="40.3,73 40.3,52.4 45.2,48.7 	"/>
	<line class="st1" x1="40.2" y1="62.6" x2="28.1" y2="62.6"/>
	<line class="st2" x1="59.2" y1="55.7" x2="51.5" y2="55.7"/>
	<line class="st2" x1="36" y1="43.7" x2="16.3" y2="43.7"/>
	<line class="st2" x1="27.9" y1="73" x2="27.9" y2="34.6"/>
	<polyline class="st0" points="59.2,72.8 59.2,46.8 68.8,46.8 	"/>
	<path class="st0" d="M61.3,23.1c0,6.1-11.1,24.8-11.1,24.8S39.1,29.2,39.1,23.1S44.1,12,50.2,12S61.3,17,61.3,23.1z"/>
	<circle class="st0" cx="50.2" cy="23.1" r="4.7"/>
</g>
</svg>
