<?xml version="1.0" encoding="utf-8"?>
<!-- Generator: Adobe Illustrator 24.0.0, SVG Export Plug-In . SVG Version: 6.00 Build 0)  -->
<svg version="1.1" id="Layer_1" xmlns="http://www.w3.org/2000/svg" xmlns:xlink="http://www.w3.org/1999/xlink" x="0px" y="0px"
	 viewBox="0 0 85 85" style="enable-background:new 0 0 85 85;" xml:space="preserve">
<style type="text/css">
	.st0{fill:none;stroke:#FF0000;stroke-width:2.5;stroke-linejoin:round;stroke-miterlimit:10;}
	.st1{fill:none;stroke:#FF0000;stroke-width:2.5;stroke-linecap:round;stroke-linejoin:round;stroke-miterlimit:10;}
</style>
<g>
	<g>
		<g>
			<g>
				<path class="st0" d="M58.3,59.5l-13,4.8l3.8-13.6l16.1-18.3c0.9-1,2.8-0.8,4.1,0.4l4.5,4c1.4,1.2,1.8,3.1,0.9,4.1L58.3,59.5z"/>
				<line class="st0" x1="58.2" y1="57.9" x2="50.3" y2="51"/>
				<line class="st0" x1="49.3" y1="62.7" x2="46.7" y2="60.4"/>
			</g>
			<line class="st0" x1="54.5" y1="54.5" x2="63.6" y2="44.2"/>
		</g>
		<line class="st0" x1="62" y1="36.6" x2="71.1" y2="44.7"/>
	</g>
	<path class="st1" d="M41.1,57.5H12.6c-1.5,0-2.8-1.2-2.8-2.8V23.4c0-1.5,1.2-2.8,2.8-2.8h45.2c1.5,0,2.8,1.2,2.8,2.8v6.1"/>
	<line class="st1" x1="22.8" y1="42.4" x2="11.4" y2="56.1"/>
	<polyline class="st1" points="10.8,21.6 35.2,40.5 59.5,21.5 	"/>
</g>
</svg>
