<?xml version="1.0" encoding="utf-8"?>
<!-- Generator: Adobe Illustrator 24.0.0, SVG Export Plug-In . SVG Version: 6.00 Build 0)  -->
<svg version="1.1" id="Layer_1" xmlns="http://www.w3.org/2000/svg" xmlns:xlink="http://www.w3.org/1999/xlink" x="0px" y="0px"
	 viewBox="0 0 85 85" style="enable-background:new 0 0 85 85;" xml:space="preserve">
<style type="text/css">
	.st0{fill:none;stroke:#FF0000;stroke-width:2;stroke-miterlimit:10;}
</style>
<g>
	<path class="st0" d="M32.1,20H66c3.4,0,6.1,2.8,6.1,6.1v32.7c0,3.4-2.8,6.1-6.1,6.1H32.1"/>
	<g>
		<g>
			<line class="st0" x1="43.3" y1="42.2" x2="37.3" y2="42.2"/>
			<line class="st0" x1="43.3" y1="49.9" x2="37.3" y2="49.9"/>
			<line class="st0" x1="43.3" y1="57.6" x2="37.3" y2="57.6"/>
		</g>
		<g>
			<line class="st0" x1="64.1" y1="42.2" x2="58" y2="42.2"/>
			<line class="st0" x1="64.1" y1="49.9" x2="58" y2="49.9"/>
			<line class="st0" x1="64.1" y1="57.6" x2="58" y2="57.6"/>
		</g>
		<g>
			<line class="st0" x1="53.7" y1="42.2" x2="47.6" y2="42.2"/>
			<line class="st0" x1="53.7" y1="49.9" x2="47.6" y2="49.9"/>
			<line class="st0" x1="53.7" y1="57.6" x2="47.6" y2="57.6"/>
		</g>
	</g>
	<rect x="38.6" y="27.4" class="st0" width="24.1" height="7.2"/>
	<path class="st0" d="M21,19.4c-4.5,0-8.2,3.8-8.2,8.4v29.5c0,4.6,3.7,8.4,8.2,8.4s8.2-3.8,8.2-8.4V27.8
		C29.2,23.2,25.5,19.4,21,19.4z"/>
</g>
</svg>
